<?xml version="1.0" encoding="UTF-8"?>
<!-- Generator: Adobe Illustrator 23.0.2, SVG Export Plug-In . SVG Version: 6.00 Build 0)  -->
<svg version="1.1" id="Layer_1" xmlns="http://www.w3.org/2000/svg" xmlns:xlink="http://www.w3.org/1999/xlink" x="0px" y="0px" viewBox="0 0 141 30" style="enable-background:new 0 0 141 30;" xml:space="preserve">
<path d="M12.98,20.88l-7.73-10.4l0,10.4l-3.25,0L2,0.11l3.25,0l0,9.74l7.73-9.74l3.85,0l-8.14,9.92l8.6,10.84L12.98,20.88z   M60.82,20.88l2.97,0l0-15.37l-2.97,0L60.82,20.88z M60.82,3.6l2.97,0V0.88l-2.97,0L60.82,3.6z M113.94,5.3  c-4.16,0-7.28,3.23-7.28,7.89c0,4.64,3.11,7.86,7.28,7.86c4.16,0,7.05-3.21,7.05-7.84C120.99,8.55,118.1,5.3,113.94,5.3   M113.94,18.74c-2.29,0-4.34-2.54-4.34-5.53c0-3.26,1.98-5.6,4.34-5.6c2.39,0,4.07,2.65,4.07,5.6  C118.01,16.14,116.29,18.74,113.94,18.74 M32.41,7.6l0,13.28l2.94,0l0-12.1c0.92-0.84,2.53-1.19,3.68-1.19  c1.92,0,2.97,1.27,2.97,3.47l0,9.81l2.93,0l0-9.87c0-3.81-2.14-5.83-5.96-5.83C36.37,5.17,34.21,5.88,32.41,7.6 M122.93,7.6l0,13.28  l2.94,0l0-12.1c0.91-0.84,2.53-1.19,3.67-1.19c1.92,0,2.98,1.27,2.98,3.47l0,9.81l2.92,0V11c0-3.81-2.14-5.83-5.95-5.83  C126.89,5.17,124.73,5.88,122.93,7.6 M67.19,7.6l0,13.28l2.94,0l0-12.1c0.91-0.84,2.53-1.19,3.68-1.19c1.92,0,2.98,1.27,2.98,3.47  l0,9.81l2.93,0l0-9.87c0-3.81-2.14-5.83-5.96-5.83C71.14,5.17,68.99,5.88,67.19,7.6 M98.91,0.88l-0.01,4.2l1.72-0.01l-0.01,3.15  l-1.69,0l0,7.85c0,2.67,1.84,4.91,4.34,4.91c1.53,0,2.05-0.18,2.46-0.31c-0.06-0.21-0.57-2.11-0.57-2.11s-0.38,0.12-1.1,0.15  c-1.53,0.05-2.23-1.51-2.23-2.64l0.02-7.92l3.64,0V5.13l-3.64,0l0-4.25L98.91,0.88 M23.53,5.34c-4.2,0-6.88,3.04-6.88,7.48  c0,3.97,2.62,8.24,7.4,8.24c2.53,0,3.64-0.27,5.43-1.12c-0.14-0.4-0.57-1.78-0.74-2.19c-1.36,0.68-2.43,1.01-4.05,1.01  c-2.97,0-5.05-2.32-5.05-4.98v-0.11l10.21,0c0.02-0.3,0.02-0.76,0.02-1.06C29.87,8.34,27.68,5.34,23.53,5.34 M19.65,11.25  c0-1.76,1.57-3.66,3.94-3.66c2.05,0,3.49,1.52,3.49,3.66L19.65,11.25 M96.86,5.13c-2.09,0.03-3.22,0.94-3.79,2.49  c-0.05-0.08-0.1-0.16-0.1-0.16c-0.74-1.22-2.5-2.17-4.45-2.17c-3.56,0-5.99,2.4-5.99,5.95c0,1.9,0.65,3.53,1.95,4.62l0.19,0.14  l-0.22,0.07c-0.91,0.24-1.91,1.34-1.84,2.59c0.05,0.88,0.57,1.8,1.41,2.28l0.32,0.13l-0.32,0.23c-1.21,0.62-2.44,2.05-2.44,3.83  c0,2.69,2.92,4.76,7.12,4.76c5.46,0,7.85-2.68,7.85-5.62c0-2.76-2.27-4.92-6.27-4.92l-1.45-0.01c-2.34-0.04-3.13-0.33-3.25-1.16  c-0.07-0.51,0.13-0.94,0.64-1.09l0.16-0.08l0.13,0.03c0.57,0.16,1.36,0.21,2,0.21c3.52,0,5.93-2.47,5.93-6  c0-0.33-0.08-1.07-0.09-1.41c0.17-1.34,1.32-1.66,2.49-1.66L96.86,5.13 M88.52,14.96c-1.77,0-3.07-1.63-3.07-3.7  c0-2.1,1.3-3.71,3.07-3.71c1.76,0,3.06,1.62,3.06,3.71C91.58,13.33,90.28,14.96,88.52,14.96 M89.28,27.34  c-2.58,0-4.82-0.71-4.82-2.91c0-1.15,0.66-2.01,2-2.51l0.19-0.05l0.95,0l2.43,0c1.84,0,3.63,0.72,3.63,2.29  C93.67,25.86,92.28,27.34,89.28,27.34 M54.28,11.94l-1.04-0.32c-1.79-0.55-3.09-0.93-3.09-2.17c0-1.04,1.11-1.88,2.95-1.87  c1.42,0.01,2.81,0.55,3.74,1.07l0.41-2.23c-0.52-0.33-2.1-1.11-4.24-1.11c-3.37,0-5.83,1.47-5.83,4.45c0,2.79,2.6,3.81,3.78,4.18  l0.93,0.32c1.76,0.58,3.15,1.01,3.15,2.34c0,0.89-0.98,2.15-3.27,2.15c-1.49,0-2.9-0.69-3.82-1.04c0,0-0.65,1.93-0.75,2.21  c1.19,0.6,3.07,1.12,4.63,1.12c1.04,0,3.09-0.09,4.62-1.38c1.19-0.95,1.63-2.25,1.63-3.41C58.07,13.29,55.44,12.31,54.28,11.94   M137.28,5.4c0.25,0,0.47-0.02,0.47-0.32c0-0.24-0.22-0.29-0.42-0.29l-0.41,0V5.4L137.28,5.4z M136.92,6.5l-0.3,0V4.53l0.75,0  c0.46,0,0.69,0.18,0.69,0.56c0,0.35-0.22,0.51-0.51,0.54l0.57,0.86l-0.33,0l-0.53-0.85l-0.34,0V6.5z M137.28,7.22  c-0.93,0-1.73-0.72-1.73-1.7c0-0.98,0.8-1.7,1.73-1.7c0.93,0,1.72,0.71,1.72,1.7C139,6.5,138.21,7.22,137.28,7.22 M135.9,5.52  c0,0.82,0.61,1.42,1.38,1.42c0.77,0,1.37-0.6,1.37-1.42c0-0.81-0.6-1.42-1.37-1.42C136.51,4.1,135.9,4.71,135.9,5.52"/>
</svg>